<mxfile host="65bd71144e">
    <diagram id="HIP3nbAZw_EuaXWnEj3U" name="Page-1">
        <mxGraphModel dx="888" dy="664" grid="1" gridSize="10" guides="1" tooltips="1" connect="1" arrows="1" fold="1" page="1" pageScale="1" pageWidth="850" pageHeight="1100" math="0" shadow="0">
            <root>
                <mxCell id="0"/>
                <mxCell id="1" parent="0"/>
                <mxCell id="7" value="http://ics2o.mths.ca" style="swimlane;whiteSpace=wrap;html=1;" parent="1" vertex="1">
                    <mxGeometry x="40" y="40" width="760" height="480" as="geometry"/>
                </mxCell>
                <mxCell id="8" value="" style="rounded=0;whiteSpace=wrap;html=1;direction=south;" vertex="1" parent="7">
                    <mxGeometry x="80" y="360" width="60" height="120" as="geometry"/>
                </mxCell>
                <mxCell id="9" value="" style="ellipse;whiteSpace=wrap;html=1;aspect=fixed;" vertex="1" parent="7">
                    <mxGeometry x="70" y="310" width="80" height="80" as="geometry"/>
                </mxCell>
                <mxCell id="10" value="" style="rounded=0;whiteSpace=wrap;html=1;" vertex="1" parent="7">
                    <mxGeometry x="210" y="380" width="320" height="10" as="geometry"/>
                </mxCell>
                <mxCell id="11" value="" style="rounded=0;whiteSpace=wrap;html=1;direction=south;" vertex="1" parent="7">
                    <mxGeometry x="210" y="390" width="20" height="90" as="geometry"/>
                </mxCell>
                <mxCell id="12" value="" style="rounded=0;whiteSpace=wrap;html=1;direction=south;" vertex="1" parent="7">
                    <mxGeometry x="510" y="390" width="20" height="90" as="geometry"/>
                </mxCell>
                <mxCell id="15" value="" style="rounded=0;whiteSpace=wrap;html=1;direction=south;" vertex="1" parent="7">
                    <mxGeometry x="610" y="360" width="60" height="120" as="geometry"/>
                </mxCell>
                <mxCell id="16" value="" style="ellipse;whiteSpace=wrap;html=1;aspect=fixed;" vertex="1" parent="7">
                    <mxGeometry x="600" y="310" width="80" height="80" as="geometry"/>
                </mxCell>
                <mxCell id="17" value="" style="shape=image;verticalLabelPosition=bottom;labelBackgroundColor=default;verticalAlign=top;aspect=fixed;imageAspect=0;image=data:image/webp,UklGRqAPAABXRUJQVlA4IJQPAACwzwCdASogA1gCPpFIoUulv7+ioPIZy/ASCWlu4XPQGC4nFuU69H+v9NXpJ87dp0tPM+ev8B4Yemh18WBudToJ+DP0R/g+NBgyJdf7X1TOzPptx8f8/yrftHoGftj7R3+z/3PTJm2COxOBticDbE4G2JwNsTgbYnA2xOBticDbE4G2JwNsTgbYnA2xOBticDbE4G2JwNsTgbYnA2xOBticDbE4G2JwNsTgbYnA2xOBticDbE4G2JwNsTgbYnA2xOBticDbE4G2JwNfay381qHnjA/ParV+1Wr9qtX7Vav2q1ftVq/arV+aMjmB5q/arV+1Wr9qtX7Vav2q1ftVq/aq9nrXUMyMKPB6cS7tMtH2TNG5bDmPsmaNy2HMPOz2WPA2xOBr6nUOr+TgbYnArnWInBJcu8POqcnJmjcthzH2TNG5DZokpqczHJyZo3LYcx9kzRioyT1FmYLnkv2q1ftVqUcIgb9l/mOpH4351FYkdl/mOpH43wPsZnwaDPgyRdN/0Fc5bFxytmbsmaNy2HMfZMu/bN4HDkLb+cmaNy2HMfZM0blsNoTsT6av2q1duJ4+RioHKJ68JQ+xCmHE+rYVTYL3FcjZwtia5bWx7Vav2q1eL2YG2JwNgQI0y5B+O25DG3ciUC91hRfFWO4v6woM+DQZzMcntVq/ZuvTdftaWerV9Vl/oB65j7I62yXZTsNRWtPrDpbBwgkfJnLYcx9kzRuWw5iTBLMlGRTODQX/Kcns3aMTC+pG1KOEBSxTODQZ8GkcXnA2xN9i/LzfX40nm3JyZoyyoMioxaVQMNx1uD9TLSS2HMfZM0blsOY+iG9fM0ZwaDOJaHsTWOEjlteHptWpqxVyT2wqnJhmJBReK9lRwuGwmpdkzRuWw5j7Jmjctht6vIZ2JwNrlV5lC0Q5ParV+1OOF/0fMdSPxv2X+YjJ6xTODIEy7bM4NubQGCGBdHxNnyMt5i2ffq0zRuWw5j7JmjFjBv2AijFw+YcavmQizz91Vhjk5M0blsOY+yZo3LYbHQ666M+DP+ikQYfzIDA9P9Q+Y8m6OkldjcZiNjHwWzYdeHgA2hJ78nWkE2l6L4YzuVO0BhWX2A8ANgBdwbntdMONQAn629wBJoz8UEV4MozfJpRDMT8b9ljV+1Wrxt2BjmOwJzkfHDLuRPdzR24vMSyUMZbtDJFI4FjeNAafZhDx0itRsVxM/NEHF8JXsPmYB6s2A/2lu6zcK5bWjMNtMqWN2iYGXj5V2HSbqaOemZ2lhaVMVCPUBflZpoxrFcHrVnarV+1Wr9qtX5RbbcVPPgXtOi12ZUwGUtr2BEEKri5gBLav45qjgl+fi/7GfVfldVpCNhr4/C+gxNCjbo4WXAOr/8ouD1hMuRc5zEWomKEn/hsIDK239yS6Gg0dN3lAwsBsDhMGXCwa8H9wCbT0De50xzvq2TMQftNKSYbxuZKD9qtX7Vav2q1KcTu7sLlaRntIv9vQX/D+kDKeR57EFskhkwNsTlWv2q1ftVq/arDOm28FOf9jaeSLi6LcpMSxVee1Wr9qtX7Vav2q1fsstBy8jOrzQWDQGWS64rAHILxx5O0TM+wxkY9sMEJK6CRhuLz7YvChvGL8vOBticDbE4G2JwNsTgWz75D00Veupo0oI5aBpvZpnBoM+DQZ8Ggz4NBnt+CceAHM4Cj5scl3B1M/m4s4hrmGi9ezPg0GfBoM+DQZ8Ggz4HlEKZofa91CwF8DIjgS+rXv52RrCgz4NBnwaDPg0GfBoMAHZo60NjZRHlVPqyxq/arV+1Wr9qtX7Vav2qwxqNeR0GZzozZyoMTQzPpr1VRk3FiDWUmJwNsTgbYnA2xOBticDbE4Fc8g1m3tq98GBCxR4rS1Qq0FEhP5Zk4WO+CEUEe1Wr9qtX7Vav2q1ftVq/arV/Z4edVvWGBTc5mdU0GfBoM+DQZ8Ggz4NBnwaDPgYS83YljxYzgFX1ki7exnkYKMiR/YV44bTTCq1ftVq/arV+1Wr9qtX7Vav2q1FMVZSNJqBY6rHlc4WjaPSi0HcM+DQZ8Ggz4NBnwaDPg0GfBoM+K6rPjxzV+1Wr9qtX7Vav2q1ftVq/arV+1Wr9qtX7Vav2q1ftVq/arV+1Wr9qtX7Vav2q1ftVq/arV+1Wr9qtX7Vav2q1ftVq/arV+1Wr9qtX7Vav2q1ftVq/arV+1Wr9qtX7Vav2q1ftVq/arV+1Wr9qtX7VahAAD+/ysIAAAAAAAAASV9jz8xnTt7fMT3dF9f0/McQYYyZtp5ggESDYyWAAe3T2wTfy5c36Xkyh/PSTkGOVew3vtfzy0CeCV7ZTJ/IFWf0LjpaBllHck/clI39zYIjRzmvfvcUoXE7KY/7l1UngJ+bI4je98CnwBxU74G+9LQPFcIft/7tHUUV/CFGVB3hlHxMICC4l3wkshmAYbpl1NMYxBn+Qi71kkFn2nJCqbMIzuLXpblH9HzvZOjxABIrLNf4WEwHyDIGbm6ANc6Mp0iP/B5sb5F6hGGYGQIaqum2tcM9CaOI9Wy8FDwz2kiU+2M1BDWrIS5RRCZJYdC77r3GoEmdjmj7x4IksdgxhpcH1E7MSXfD+B6tkOnSgsBF5Ua/7CAbqQBUuJeeCAARsxT9d4M4JlinfIn29h9SZDbRrXThnYZg+s6CH3W6fVINA9qzTc7dlldtSErMBmDEGmqUy/7vkVvI++ZNbTXc+MrWXqQVh70dBHxLdYSGVGSYJlOKXK42N2qrM9Duhkzcq7kB9gfSkzTfx6AWk9YgRvcZGRI9dsrRpcjpXEwA2TQz2r76CAZo1rA87Nw27mJD2JM7sFP6TxJ9i9Df4Qbz7AYmLQUBMeX3oYOOm5rRIVEQijKt52/rH5SuZvKjm6PTDTO0bfv8kXCwIwfzfEUwp8pb8zcdHO1NcHUqQgFMa5PXyVVv3o05actC+fBGzc1pCwPNYJmmTxPzXmsD9qVhYvawzbPfZ7xa7f7+Np2mrgInK6NU6e8vLfIbHONAn7Ve+AowMd+xleOPGovV41jv91YydNA3FqXAWvhAnzQUIC3JvZ2A5sRUdtmf+AZ0d8bsPShQH8HmLmdlfV1liPxrkcKK0k8BXJ5NQPBmwEVmR5Mh03xrM/AuNdr+uZ+pte9+9vG0/kbmAxliUNTNgma5MjcTvYXJkSFvNP0Dx3ggtUYpbGvQev6TJbHQjNuDztoyz1EZy9mnpaJ5ia3LyuiUDRNq/XV/ZhPxyg6NIW7whP8k4/iiKLdIjcaPIArH8s4ZbWaV6AbCLM7bi5Dyftdb6pwiDL16JynKKon6y0fULpv4/nmAjHj5Ca40IGKX4duUJPEaYZZzzRaUkw/Yv0KO/wwfyasm99YBAGNXX+HXwdEqtZztuPVOmvdEaXxQe0un+ZmNW1RDmJBr7gZFFUTmdqewdSZhwd2Q7kotDV6BgM2k0Ng4z4FuzH7mOvtVhKy/UycfmT8rR6kOHW2jp0UnWyYYAnSA026Tl5SPp6VhsreANYSR3t0rcMGlncsdvKawoQQ6S5XGeiC4OL8rt+0wy0mbomqnrLJPEJZjqQ8J8n/Gkxd5jDBKhPpc/mdlgf8rupyN1LuwFkvxYaxv5UygiqBfHPAQ9wKn9IE2zf7KKlmws7GfavJZqTULzN5KJD+MtVFc4Ev7Qa8KKU+0MY9L+3s+pcRkpyYUrjcAOhWcm2ehPNZ3lCe06S5W1Xm7x9S9tJ6fRRERsP8HhkUvLa/EP6ECiHS96ZTWaJbtKq4/r0O21+v8MAkSl7GRMMIa5QYQSt2gTXc0wMJf5ckq9pz0LdMAUr+nbXWS5R3Uow+3h0xO0yDtlwEIq4Dvi3y5N62+ZYfY9XrtLiGi95ThpRJUkSj7m5ZYxHGnjp3wZ6KfPyOSoN/HZICY7M7Kbdtq1UMdoS8qK0Tsje4RVP6cur8507RC9tC9w5FE3Wu31bKG7a/LaowKhBVSaY0H0Yc7IYZZuJvJQb6BlV3kxCMkVtt/Es39YLmxcxJwXikZyn9IC4dMADhgVqndMGcgktO6wYaHjaA1nppilTDMB30Ig7P6sLshBkjvshQnWHIEXVJRaDgXqPgRB0ZTW/s1l+wvMK9cEECCfwx0G/mE0s/4W58AOUFnsz/t/7YSKyF/WOaKd0j5UtZjhaXCV/Yh7R1F+UY1/9iqb3/Hob3t+MF+h6dtl7gkJojdH9ZzI+izOcDLGyku7++d2OwvVLrBXAGoL7lrueS33W1OrNfPbjpEFUlLeZT/d1/t7scgJn1jmbInyWTmUY2UwlwGV1DqCXajpNg+N2OHT02jGBUZN69D89R+py7hzQWtrj75UcRucloAHpKRMRLSl/HvIHR9sUW6p2M8qo+SgFjMTjeoiPmBK+NY1q5GhMn9I60E1nbAhXuUCzCx7068L9w1qGMkQmM55tXzzqp4jFw4gedm7kFBDguFeuGZ+BkMObwyhx43BHYuc0QG8fIPkCkhgwohOmn8bgnoGOcub+cDZfGu/uiBgyoVkDMkjeWp4eAgJAnqVwoiRgRV3mIA0SHDl0RCyT5mJ+mFkD3D2kQPp0nF+7ggLKPL2chQSi6yZhvjg3tWfzSWAPBTFSy23UMPqoMxY4/KijARdcez43vFsZxM/c2YCgn7ZDOt/8oqAejvj+mZYovnBsRK0EsPCBAh1YXx71oi+eZf3IVwkmEhqsWz8INYbq5bGsFGfxTa4EHFcMfqAA65kGG+nQKYn5/EUxwtR/tRzd+WZFedVzrQDgeQE1DOA5tPbMto2GTr7DlemDBDGLRllDboV5cmBCDVTjDo/Cq0vQaiHgcUP2c37lpsi9Mpm/4R3+gMPvcC3trPuL/1QhUnPkcRlSXUwCPRWuPw98688yuixOgn2qCFCQk7BaJfvp+AKQ102Q5Rp/6EBsxA6yqFAI4+w51MFo70ApsvQXZC5kOxMOu/EZdvE0hzmvpd40lwdSBxoMSxC2F/pcHTFEzIK4UBIwyYxOK2yjeYDL4h3gpjlutU/zmCIt+vSHrX44cEa+7Me4sheJTXpL/KJAXtLiBAfpjVbeULejs2uQSTZIJpXqttGAoBanZjq96cAAD6UvHHLFmpWviX3fWWIXl7pmO7vwdBZXpyzDMb+YsKADKja3PPEljsTwYnx6uMsBMvOP44CFtP5UB5lEkHYh/PSDjDenu8uSXR4AXnCC7iJo9hgTen96t3ojRcGES8EyoSAWQAacoF7UMWJuARCc75SI2tj2FKCl/YPT1qLXgJ5JsgATFer0Rb8kEIFEAKMndejWzOSdSKGWW2c5MbHinRtP6jhtoAFAAAAAAAAAAAAAAAAAA;" vertex="1" parent="7">
                    <mxGeometry x="540" y="327.5" width="60" height="45" as="geometry"/>
                </mxCell>
            </root>
        </mxGraphModel>
    </diagram>
</mxfile>